<?xml version="1.0" encoding="UTF-8" standalone="no"?>
<svg
   xmlns:dc="http://purl.org/dc/elements/1.1/"
   xmlns:cc="http://creativecommons.org/ns#"
   xmlns:rdf="http://www.w3.org/1999/02/22-rdf-syntax-ns#"
   xmlns:svg="http://www.w3.org/2000/svg"
   xmlns="http://www.w3.org/2000/svg"
   xmlns:sodipodi="http://sodipodi.sourceforge.net/DTD/sodipodi-0.dtd"
   xmlns:inkscape="http://www.inkscape.org/namespaces/inkscape"
   width="95mm"
   height="94mm"
   viewBox="0 0 95 94"
   version="1.1"
   id="svg8"
   sodipodi:docname="icon.svg"
   inkscape:export-filename="C:\Users\Mozzo\Documents\Github\tagz\assets\icon.png"
   inkscape:export-xdpi="96"
   inkscape:export-ydpi="96"
   inkscape:version="1.0.2-2 (e86c870879, 2021-01-15)">
  <defs
     id="defs2" />
  <sodipodi:namedview
     id="base"
     pagecolor="#ffffff"
     bordercolor="#666666"
     borderopacity="1.0"
     inkscape:pageopacity="0.0"
     inkscape:pageshadow="2"
     inkscape:zoom="0.98994949"
     inkscape:cx="599.71509"
     inkscape:cy="270.95996"
     inkscape:document-units="mm"
     inkscape:current-layer="layer1"
     inkscape:document-rotation="0"
     showgrid="false"
     inkscape:window-width="1920"
     inkscape:window-height="1017"
     inkscape:window-x="-8"
     inkscape:window-y="-8"
     inkscape:window-maximized="1" />
  <metadata
     id="metadata5">
    <rdf:RDF>
      <cc:Work
         rdf:about="">
        <dc:format>image/svg+xml</dc:format>
        <dc:type
           rdf:resource="http://purl.org/dc/dcmitype/StillImage" />
        <dc:title></dc:title>
      </cc:Work>
    </rdf:RDF>
  </metadata>
  <g
     inkscape:label="Layer 1"
     inkscape:groupmode="layer"
     id="layer1">
    <g
       id="icon"
       style="opacity:1;fill:none;fill-rule:nonzero;stroke:none;stroke-width:1;stroke-linecap:butt;stroke-linejoin:miter;stroke-miterlimit:10;stroke-dasharray:none"
       transform="matrix(1.0292292,0,0,1.0292292,-11.31632,0.44223819)"
       inkscape:export-xdpi="96"
       inkscape:export-ydpi="96">
	<path
   d="M 63.089,1.483 H 15.755 c -1.551,0 -2.808,1.257 -2.808,2.808 v 81.418 c 0,1.551 1.257,2.808 2.808,2.808 h 58.49 c 1.551,0 2.808,-1.257 2.808,-2.808 V 14.927 Z m 2.807,13.444 c -1.551,0 -2.808,-1.257 -2.808,-2.808 V 1.483 l 13.964,13.444 z"
   style="opacity:1;fill:none;fill-rule:nonzero;stroke:none;stroke-width:1;stroke-linecap:butt;stroke-linejoin:miter;stroke-miterlimit:10;stroke-dasharray:none"
   stroke-linecap="round"
   id="path14" />

	<path
   d="m 75.569,83.678 v 2.031 c 0,0.729 -0.594,1.323 -1.324,1.323 h -58.49 c -0.73,0 -1.324,-0.594 -1.324,-1.323 V 4.291 c 0,-0.73 0.594,-1.324 1.324,-1.324 h 45.851 v 9.153 c 0,2.366 1.925,4.291 4.29,4.291 h 9.673 v 67.267 c 1.021,0.094 1.601,1.553 2.967,-0.566 V 14.94 c 0.001,-0.084 -0.006,-0.166 -0.018,-0.248 0,0 -0.001,0 -0.001,-10e-4 0,-0.001 0,-0.001 0,-0.003 v 0 c 0,-0.001 -10e-4,-0.002 -10e-4,-0.003 -0.007,-0.042 -0.015,-0.082 -0.026,-0.123 v 0 c -10e-4,-10e-4 0.002,-0.003 -10e-4,-0.003 0,-0.002 0,-0.003 -0.001,-0.004 v 0 c -0.066,-0.253 -0.199,-0.489 -0.392,-0.68 h -0.001 c 0,0 -0.001,-10e-4 -0.001,-10e-4 -0.007,-0.001 -0.002,-0.001 -0.003,-0.002 0.003,-0.005 -0.002,-0.002 -0.002,-0.002 -0.002,-10e-4 0.001,-10e-4 -0.003,-0.002 0.001,-10e-4 -0.002,-10e-4 -0.002,-0.002 -0.001,-10e-4 -0.002,-10e-4 -0.003,-0.002 L 64.118,0.415 C 64.117,0.414 64.116,0.413 64.115,0.412 64.114,0.411 64.113,0.41 64.112,0.409 63.911,0.219 63.668,0.092 63.409,0.035 63.371,0.027 63.334,0.02 63.296,0.015 c -10e-4,0 -10e-4,0 -10e-4,0 -0.002,-10e-4 -0.003,0 -0.005,-10e-4 -0.002,0 -0.004,-0.001 -0.004,0 -0.001,0 -0.003,0 -0.005,0 -0.002,0 -0.003,-0.001 -0.005,0 0,0 -0.001,0 -0.005,-0.001 C 63.207,0.003 63.131,0.003 63.079,0 H 15.755 C 13.389,0 11.464,1.925 11.464,4.291 V 85.71 c 0,2.365 1.925,4.29 4.291,4.29 h 58.49 c 2.366,0 4.291,-1.925 4.291,-4.29 V 83.112 C 77.58,83.39 76.59,83.584 75.569,83.678 Z M 64.573,4.971 l 8.8,8.473 h -7.477 c -0.729,0 -1.323,-0.594 -1.323,-1.324 z"
   style="opacity:1;fill:#000000;fill-rule:nonzero;stroke:none;stroke-width:1;stroke-linecap:butt;stroke-linejoin:miter;stroke-miterlimit:10;stroke-dasharray:none"
   stroke-linecap="round"
   id="path16" />

	<path
   d="m 21.924,66.401 c -0.82,0 -1.484,0.664 -1.484,1.484 0,0.82 0.664,1.484 1.484,1.484 h 22.668 c 0.819,0 1.484,-0.664 1.484,-1.484 0,-0.82 -0.664,-1.484 -1.484,-1.484 z"
   style="opacity:1;fill:#000000;fill-rule:nonzero;stroke:none;stroke-width:1;stroke-linecap:butt;stroke-linejoin:miter;stroke-miterlimit:10;stroke-dasharray:none"
   stroke-linecap="round"
   id="path18" />

	<path
   d="m 21.924,39.698 h 47.294 c 0.819,0 1.484,-0.664 1.484,-1.484 0,-0.82 -0.664,-1.484 -1.484,-1.484 H 21.924 c -0.82,0 -1.484,0.664 -1.484,1.484 0,0.82 0.665,1.484 1.484,1.484 z"
   style="opacity:1;fill:#000000;fill-rule:nonzero;stroke:none;stroke-width:1;stroke-linecap:butt;stroke-linejoin:miter;stroke-miterlimit:10;stroke-dasharray:none"
   stroke-linecap="round"
   id="path20" />

	<path
   d="m 70.702,57.995 c 0,-0.819 -0.664,-1.484 -1.484,-1.484 H 21.924 c -0.82,0 -1.484,0.664 -1.484,1.484 0,0.82 0.664,1.484 1.484,1.484 h 47.294 c 0.82,-10e-4 1.484,-0.665 1.484,-1.484 z"
   style="opacity:1;fill:#000000;fill-rule:nonzero;stroke:none;stroke-width:1;stroke-linecap:butt;stroke-linejoin:miter;stroke-miterlimit:10;stroke-dasharray:none"
   stroke-linecap="round"
   id="path22" />

	<path
   d="m 21.924,29.808 h 22.668 c 0.819,0 1.484,-0.664 1.484,-1.484 0,-0.82 -0.664,-1.484 -1.484,-1.484 H 21.924 c -0.82,0 -1.484,0.664 -1.484,1.484 10e-4,0.82 0.665,1.484 1.484,1.484 z"
   style="opacity:1;fill:#000000;fill-rule:nonzero;stroke:none;stroke-width:1;stroke-linecap:butt;stroke-linejoin:miter;stroke-miterlimit:10;stroke-dasharray:none"
   stroke-linecap="round"
   id="path24" />

	<path
   d="m 21.924,49.588 h 47.294 c 0.819,0 1.484,-0.664 1.484,-1.484 0,-0.819 -0.664,-1.484 -1.484,-1.484 H 21.924 c -0.82,0 -1.484,0.664 -1.484,1.484 10e-4,0.82 0.665,1.484 1.484,1.484 z"
   style="opacity:1;fill:#000000;fill-rule:nonzero;stroke:none;stroke-width:1;stroke-linecap:butt;stroke-linejoin:miter;stroke-miterlimit:10;stroke-dasharray:none"
   stroke-linecap="round"
   id="path26" />

</g>
    <g
       id="icon-6"
       style="opacity:1;fill:none;fill-rule:nonzero;stroke:none;stroke-width:1;stroke-linecap:butt;stroke-linejoin:miter;stroke-miterlimit:10;stroke-dasharray:none"
       transform="matrix(0,-0.67225429,0.67225429,0,34.127343,60.888629)"
       inkscape:export-xdpi="96"
       inkscape:export-ydpi="96">
	<path
   d="M 89.893,29.308 86.621,9.772 C 86.072,6.496 83.505,3.928 80.229,3.38 L 60.692,0.107 C 58.216,-0.308 55.693,0.5 53.918,2.275 L 2.28,53.912 c -3.041,3.041 -3.041,7.97 0,11.011 L 25.077,87.72 c 3.04,3.041 7.97,3.041 11.011,0 L 87.726,36.083 c 1.774,-1.776 2.582,-4.299 2.167,-6.775 z"
   style="opacity:1;fill:#e05353;fill-rule:nonzero;stroke:none;stroke-width:1;stroke-linecap:butt;stroke-linejoin:miter;stroke-miterlimit:10;stroke-dasharray:none"
   stroke-linecap="round"
   id="path47" />

	
	
	
	
	
	
	
	
	<path
   d="m 78.778,15.586 c -1.205,1.205 -3.159,1.205 -4.364,0 -1.205,-1.205 -1.205,-3.159 0,-4.364 1.205,-1.205 3.159,-1.205 4.364,0 1.205,1.205 1.205,3.159 0,4.364 z"
   style="opacity:1;fill:#ffffff;fill-rule:nonzero;stroke:none;stroke-width:1;stroke-linecap:butt;stroke-linejoin:miter;stroke-miterlimit:10;stroke-dasharray:none"
   stroke-linecap="round"
   id="path65" />

</g>
    <path
       style="fill:#ffffff;stroke-width:1.01015"
       d="m 15.543876,338.43815 c -0.932661,-0.93266 -1.212183,-38.31055 -1.212183,-162.09394 0,-158.025232 0.03469,-160.900324 1.953896,-161.927451 1.287149,-0.688861 23.52059,-1.045694 65.15484,-1.045694 62.625461,0 63.183031,0.01791 61.234361,1.966584 -1.08162,1.081621 -2.64273,3.274113 -3.46914,4.872205 -1.51831,2.936091 -10.72672,54.381828 -10.72672,59.928276 0,6.67396 2.90486,10.310495 29.57641,37.02611 l 26.47276,26.5165 h -71.74145 c -79.83169,0 -76.231601,-0.31008 -76.231601,6.566 0,6.90734 -4.305566,6.56599 82.819891,6.56599 h 78.32975 l 12.5966,12.6269 12.59659,12.62691 -90.3935,0.0148 c -70.595232,0.0116 -90.946609,0.29328 -92.918873,1.28591 -1.877498,0.94495 -2.604346,2.21228 -2.833176,4.9399 -0.615073,7.33163 -6.862952,6.89132 97.787519,6.89132 84.73691,0 93.71457,-0.15403 95.84244,-1.64445 2.30693,-1.61583 2.5043,-1.48869 11.33645,7.30254 l 8.98865,8.947 v 63.33598 c 0,56.23129 -0.17806,63.51405 -1.58739,64.92336 -1.42454,1.42455 -13.42409,1.58739 -116.97566,1.58739 -88.399571,0 -115.671804,-0.28352 -116.600464,-1.21219 z M 134.71284,270.29832 c 2.09701,-1.89776 2.47515,-7.39783 0.63513,-9.23785 -0.90822,-0.90822 -13.04861,-1.21218 -48.41517,-1.21218 -41.564936,0 -47.392587,0.1896 -48.790368,1.58738 -2.068879,2.06887 -2.027245,6.35379 0.08441,8.68714 1.573463,1.73865 4.405715,1.84731 48.155244,1.84731 41.835774,0 46.668154,-0.16716 48.330754,-1.6718 z m 95.9645,-38.38579 c 2.0524,-1.85741 2.39744,-5.51431 0.80161,-8.49614 -1.02255,-1.91067 -3.16406,-1.9539 -96.77261,-1.9539 -73.107406,0 -96.013355,0.28643 -96.939108,1.21218 -1.750653,1.75066 -1.489036,6.90911 0.459607,9.06234 1.596899,1.76456 5.903541,1.84731 96.137491,1.84731 86.48376,0 94.62179,-0.14126 96.31301,-1.67179 z m -96.36226,-115.0581 c 3.09331,-2.16664 3.09331,-7.82034 0,-9.98697 -1.95131,-1.36676 -8.2001,-1.57251 -47.75748,-1.57251 -50.821777,0 -50.002551,-0.10758 -50.002551,6.56599 0,6.67356 -0.819226,6.56599 50.002551,6.56599 39.55738,0 45.80617,-0.20576 47.75748,-1.5725 z"
       id="path161"
       transform="scale(0.26458333)"
       inkscape:export-xdpi="96"
       inkscape:export-ydpi="96" />
  </g>
</svg>
